HIERARCHY
ROOT root
{
	OFFSET	0	13.1	24.9
	CHANNELS 6  Xposition Yposition Zposition Xrotation Yrotation Zrotation
	JOINT spine_1
	{
		OFFSET	0	9.99999	0
		CHANNELS 3  Xrotation Yrotation Zrotation
		JOINT spine_2
		{
			OFFSET	0	112	-10
			CHANNELS 3  Xrotation Yrotation Zrotation
			JOINT spine_3
			{
				OFFSET	0	206.5	19.3
				CHANNELS 3  Xrotation Yrotation Zrotation
				JOINT spine_4
				{
					OFFSET	0	110.4	14.6
					CHANNELS 3  Xrotation Yrotation Zrotation
					JOINT neck_1
					{
						OFFSET	0	71.8	-50.3
						CHANNELS 3  Xrotation Yrotation Zrotation
						JOINT neck_2
						{
							OFFSET	0	86.2	-25.8
							CHANNELS 3  Xrotation Yrotation Zrotation
							JOINT head_ee
							{
								OFFSET	0	179.8	-8.7
								CHANNELS 3  Xrotation Yrotation Zrotation
								End Site
								{
									OFFSET	1	0	0
								}
							}
						}
					}
					JOINT left_clavicle
					{
						OFFSET	-43.2	22.4	-70.8
						CHANNELS 3  Xrotation Yrotation Zrotation
						JOINT left_shoulder
						{
							OFFSET	-93.9	-5.79999	48.7
							CHANNELS 3  Xrotation Yrotation Zrotation
							JOINT left_elbow
							{
								OFFSET	-291.4	-30.8	15.2
								CHANNELS 3  Xrotation Yrotation Zrotation
								JOINT left_lowarm_twist
								{
									OFFSET	-110.7	-3.89999	13.6
									CHANNELS 3  Xrotation Yrotation Zrotation
									JOINT left_hand
									{
										OFFSET	-110.7	-3.89999	13.6
										CHANNELS 3  Xrotation Yrotation Zrotation
										JOINT left_ee
										{
											OFFSET	-80.8	-5.10001	12.1
											CHANNELS 3  Xrotation Yrotation Zrotation
											End Site
											{
												OFFSET	1	0	0
											}
										}
									}
								}
							}
						}
					}
					JOINT right_clavicle
					{
						OFFSET	43.2	22.4	-70.8
						CHANNELS 3  Xrotation Yrotation Zrotation
						JOINT right_shoulder
						{
							OFFSET	93.9	-5.79999	48.7
							CHANNELS 3  Xrotation Yrotation Zrotation
							JOINT right_elbow
							{
								OFFSET	291.4	-30.8	15.2
								CHANNELS 3  Xrotation Yrotation Zrotation
								JOINT right_lowarm_twist
								{
									OFFSET	110.7	-3.89999	13.6
									CHANNELS 3  Xrotation Yrotation Zrotation
									JOINT right_hand
									{
										OFFSET	110.7	-3.89999	13.6
										CHANNELS 3  Xrotation Yrotation Zrotation
										JOINT right_ee
										{
											OFFSET	80.8	-5.10001	12.1
											CHANNELS 3  Xrotation Yrotation Zrotation
											End Site
											{
												OFFSET	1	0	0
											}
										}
									}
								}
							}
						}
					}
				}
			}
		}
	}
	JOINT left_hip
	{
		OFFSET	-82.8	-127.5	0.300001
		CHANNELS 3  Xrotation Yrotation Zrotation
		JOINT left_knee
		{
			OFFSET	-28.2	-396.7	2.2
			CHANNELS 3  Xrotation Yrotation Zrotation
			JOINT left_ankle
			{
				OFFSET	-11.7	-411.3	35.4
				CHANNELS 3  Xrotation Yrotation Zrotation
				JOINT left_toes
				{
					OFFSET	0	-60	-88.6
					CHANNELS 3  Xrotation Yrotation Zrotation
					JOINT left_foot_ee
					{
						OFFSET	-22.5	-16.5	-42.2
						CHANNELS 3  Xrotation Yrotation Zrotation
						End Site
						{
							OFFSET	1	0	0
						}
					}
				}
			}
		}
	}
	JOINT right_hip
	{
		OFFSET	82.8	-127.5	0.300001
		CHANNELS 3  Xrotation Yrotation Zrotation
		JOINT right_knee
		{
			OFFSET	28.2	-396.7	2.2
			CHANNELS 3  Xrotation Yrotation Zrotation
			JOINT right_ankle
			{
				OFFSET	11.7	-411.3	35.4
				CHANNELS 3  Xrotation Yrotation Zrotation
				JOINT right_toes
				{
					OFFSET	0	-60	-88.6
					CHANNELS 3  Xrotation Yrotation Zrotation
					JOINT right_foot_ee
					{
						OFFSET	22.5	-16.5	-42.2
						CHANNELS 3  Xrotation Yrotation Zrotation
						End Site
						{
							OFFSET	1	0	0
						}
					}
				}
			}
		}
	}
}
MOTION
Frames: 12
Frame Time: 0.02
1734.86 663.949 -1488.99 -39.2935 75.0704 40.7384 4.2475 0.461256 -0.567405 4.24754 0.496426 -0.536905 4.24286 0.565445 -0.463657 4.24289 0.485124 -0.547139 -26.1216 10.3904 4.72213 -26.7837 18.115 9.97139 -0.0 0.0 -0.0 1.35868 23.6738 4.58917 -38.8565 0.400173 70.8296 0.581829 -16.0782 0.0821766 -66.8743 -6.14792 5.26327 1.63291 4.47983 12.7337 -0.0 0.0 -0.0 13.1664 25.7467 -26.0918 4.88562 11.6361 -59.5312 3.3906 59.2173 -1.92719 83.2474 4.21792 8.78212 2.45793 -27.9921 -25.2831 0.0 0.0 0.0 36.9615 2.58511 -11.4429 2.43585 -0.107945 -0.358154 -13.1792 5.469 1.97536 -7.70336 0.0 0.0 -0.0 0.0 -0.0 -9.16405 6.55796 5.12161 -13.8054 -0.317993 -2.08963 38.2613 13.9164 4.97569 -7.98354 0.0 0.0 0.0 0.0 0.0 
1714.08 662.721 -1482.24 -38.6432 74.7427 40.3787 4.27476 0.444447 -0.515264 4.27479 0.476333 -0.485939 4.27073 0.53834 -0.416198 4.27079 0.465854 -0.495994 -25.5643 10.3123 4.44722 -26.2051 18.0437 9.56598 -0.0 0.0 -0.0 1.78644 23.4236 5.15926 -38.0772 0.6023 70.3115 0.568528 -15.7291 0.0785318 -67.2028 -6.18967 5.26839 1.61599 5.54348 13.0248 -0.0 0.0 -0.0 13.2021 25.6948 -26.1806 4.56641 11.8452 -59.264 3.46385 59.7523 -1.99029 83.0079 4.18961 8.77015 2.43067 -27.7362 -25.0627 0.0 0.0 0.0 37.6601 2.47885 -11.5723 1.793 -0.0779768 -0.264074 -15.7868 7.43049 2.36847 -7.3059 0.0 0.0 -0.0 0.0 -0.0 -9.93821 6.55328 5.5837 -13.8663 -0.318273 -2.09899 38.037 13.084 4.93094 -8.94066 0.0 0.0 0.0 0.0 0.0 
1692.56 665.471 -1473.24 -41.0151 74.6109 42.8841 4.35466 0.374641 -0.615967 4.35478 0.413077 -0.59088 4.35044 0.489302 -0.529486 4.35027 0.399541 -0.600115 -22.9467 10.4981 4.51889 -23.4887 18.2008 9.21829 -0.0 0.0 -0.0 1.94674 23.4856 5.38285 -36.8905 -0.454012 69.3779 0.601763 -16.5992 0.0877843 -67.4309 -6.21867 5.27181 1.90408 3.4134 14.1674 -0.0 0.0 -0.0 13.1847 25.7829 -26.1299 3.61144 12.0977 -58.1522 3.4343 59.5386 -1.96479 83.2378 4.21678 8.78164 2.29275 -27.1018 -24.0765 0.0 0.0 0.0 36.9993 2.44902 -10.8232 0.104327 -0.00430976 -0.0154299 -10.8043 7.12618 1.61304 -6.59629 0.0 0.0 -0.0 0.0 -0.0 -9.65731 6.72515 6.42945 -13.5648 -0.316789 -2.05275 37.2859 11.1814 4.81113 -9.98115 0.0 0.0 0.0 0.0 0.0 
1672.52 669.716 -1465.33 -41.5961 73.7592 43.3625 4.23451 0.4006 -0.46396 4.23452 0.42931 -0.437529 4.23123 0.485391 -0.374345 4.23128 0.42018 -0.446305 -21.3389 10.7098 4.8111 -21.8155 18.3414 9.27649 -0.0 0.0 -0.0 2.13888 24.0668 5.67352 -35.9864 -1.47162 68.4912 0.66075 -18.1242 0.105388 -66.965 -6.15946 5.26471 2.0262 1.77648 14.3694 -0.0 0.0 -0.0 13.0774 25.7548 -25.8847 2.10261 12.7232 -57.9794 3.45607 59.6963 -1.98357 82.8419 4.17004 8.76178 2.08251 -27.5318 -22.8862 0.0 0.0 0.0 36.8553 2.13167 -10.7519 -3.65599 0.133168 0.545182 -2.57145 6.84753 0.378647 -4.89311 0.0 0.0 -0.0 0.0 -0.0 -9.48508 6.88109 6.98621 -13.4383 -0.316093 -2.03335 36.0734 9.7393 4.66306 -10.7222 0.0 0.0 0.0 0.0 0.0 
1656.67 672.341 -1458.42 -42.1839 73.4294 43.949 4.33222 0.288274 -0.40472 4.33226 0.313443 -0.385556 4.33013 0.36289 -0.339427 4.33009 0.30473 -0.392479 -20.35 10.5809 4.86946 -20.7636 17.9716 9.08116 -0.0 0.0 -0.0 2.16674 24.0935 5.71252 -34.3543 -1.89591 67.905 0.679499 -18.6035 0.111295 -66.1543 -6.05653 5.2512 2.2903 -1.49206 14.8926 -0.0 0.0 -0.0 13.1312 25.6939 -26.0164 0.111535 12.614 -58.1024 3.43258 59.526 -1.96331 84.8313 4.40633 8.85832 2.26493 -28.7722 -24.2608 0.0 0.0 0.0 37.9717 1.27929 -10.5209 -8.28777 0.251477 1.24596 1.15433 6.5905 -0.168533 -4.20134 0.0 0.0 -0.0 0.0 -0.0 -9.30176 7.34612 8.43801 -13.5566 -0.316745 -2.05149 33.0427 10.5827 4.38115 -10.4141 0.0 0.0 0.0 0.0 0.0 
1632.77 672.946 -1451.37 -39.8264 72.4455 41.8102 4.2735 0.265081 -0.53566 4.27361 0.298629 -0.517707 4.27084 0.366648 -0.471985 4.27065 0.287507 -0.523965 -19.9689 10.4463 4.62586 -20.3656 17.7973 8.72773 -0.0 0.0 -0.0 1.60729 24.5708 4.9834 -32.7398 -3.39059 68.5339 0.708924 -19.3503 0.120863 -66.8788 -6.1485 5.26334 2.54533 -2.31577 16.3349 -0.0 0.0 -0.0 13.157 25.5302 -26.095 -0.7341 12.4531 -58.9243 3.32201 58.7006 -1.86842 82.1251 4.08572 8.72499 1.74626 -29.6883 -21.3811 0.0 0.0 0.0 36.9218 1.68714 -10.2637 -10.942 0.293618 1.65101 8.66389 6.42144 -1.23752 -4.85538 0.0 0.0 -0.0 0.0 -0.0 -8.69801 6.73411 8.79703 -16.2366 -0.321465 -2.46262 33.6674 7.92597 4.39044 -10.3647 0.0 0.0 0.0 0.0 0.0 
1614.79 673.711 -1448.57 -37.8862 73.708 40.3042 4.16999 0.100302 -0.360663 4.17005 0.123048 -0.353549 4.16925 0.170845 -0.333092 4.16912 0.116096 -0.355893 -22.2848 9.82572 3.91622 -22.7475 17.1326 8.20957 -0.0 0.0 -0.0 0.656561 24.4163 3.6979 -31.2606 -4.21953 69.4397 0.894378 -23.8954 0.189256 -66.7897 -6.13718 5.26191 2.9404 -3.97641 18.4294 -0.0 0.0 -0.0 12.8443 23.7274 -25.5641 -2.20376 12.3287 -59.9628 3.22242 57.922 -1.78368 81.1563 3.97251 8.6736 1.5701 -29.8613 -20.4016 0.0 0.0 0.0 34.5775 1.15098 -9.83068 -17.1777 0.31856 2.60697 19.9061 6.05783 -2.71952 -4.12763 0.0 0.0 -0.0 0.0 -0.0 -7.74653 8.19845 7.50499 -22.5664 -0.256333 -3.43117 34.2688 4.9938 4.40221 -10.8812 0.0 0.0 0.0 0.0 0.0 
1597.79 675.834 -1442.24 -36.1046 74.0757 38.3373 4.2431 0.0333391 -0.212855 4.24313 0.046816 -0.210302 4.24294 0.0752408 -0.201885 4.24289 0.0424127 -0.211234 -23.4382 9.73003 4.19897 -23.9197 16.8973 8.62609 -0.0 0.0 -0.0 -0.105548 24.126 2.64428 -29.3525 -4.91932 70.747 0.996936 -26.2821 0.232753 -66.6161 -6.11514 5.25907 3.13926 -5.14283 19.3476 -0.0 0.0 -0.0 12.5986 23.3654 -25.0315 -4.10795 12.0338 -60.552 3.03794 56.3845 -1.62867 81.1472 3.97145 8.67311 1.46119 -29.4375 -19.6699 0.0 0.0 0.0 32.8963 1.44763 -9.22935 -19.0604 0.305635 2.89554 21.8299 2.56029 -2.96364 -6.84759 0.0 0.0 -0.0 0.0 -0.0 -7.01781 8.89058 8.30989 -26.12 -0.173017 -3.97006 33.4574 4.4522 4.314 -11.7101 0.0 0.0 0.0 0.0 0.0 
1581.28 681.509 -1441.46 -35.5714 74.8865 37.5896 4.04081 0.0157793 0.00253267 4.04081 0.0155861 0.00353161 4.04081 0.0149338 0.00569036 4.04081 0.0156451 0.00326043 -24.677 8.45559 3.84216 -25.065 14.6701 7.84572 -0.0 0.0 -0.0 0.0563648 24.0378 2.85313 -28.7114 -6.72787 70.6549 1.07236 -27.9772 0.267149 -66.9497 -6.15751 5.26447 3.22678 -6.10658 19.5539 -0.0 0.0 -0.0 12.424 22.8069 -24.6814 -5.1363 11.8468 -61.474 2.69496 53.1551 -1.3484 80.0284 3.84182 8.61137 1.36487 -29.559 -19.1478 0.0 0.0 0.0 31.342 1.27884 -8.90753 -21.0715 0.281365 3.20314 27.7081 4.7156 -3.63969 -2.50828 0.0 0.0 -0.0 0.0 -0.0 -5.83334 9.93467 7.93245 -29.4155 -0.0660107 -4.46442 34.6291 -0.399763 4.38028 -12.7876 0.0 0.0 0.0 0.0 0.0 
1553.5 691.574 -1440.06 -35.1167 75.4636 37.3513 4.10275 -0.106728 -0.0758371 4.10275 -0.101686 -0.0824748 4.10289 -0.0891687 -0.0958704 4.1029 -0.103191 -0.0805847 -26.6711 8.4099 4.63366 -27.0728 14.3739 8.86508 -0.0 0.0 -0.0 -1.63599 24.1702 0.587545 -27.4342 -8.88408 72.8765 1.13594 -29.3661 0.297659 -66.5775 -6.11024 5.25843 3.48145 -9.24993 19.962 -0.0 0.0 -0.0 12.1426 20.9166 -24.1935 -8.12073 11.3145 -63.0765 2.50205 51.0948 -1.1961 80.6421 3.91278 8.64555 1.77036 -29.8736 -21.564 0.0 0.0 0.0 27.6431 1.16326 -8.25814 -17.8362 0.315118 2.70795 22.7788 0.620403 -3.08743 -4.82745 0.0 0.0 -0.0 0.0 -0.0 -4.79705 10.5856 7.63349 -31.9422 0.035211 -4.83893 34.9806 -6.57476 4.3972 -13.9183 0.0 0.0 0.0 0.0 0.0 
1543.18 697.366 -1434.28 -33.417 76.0156 34.9334 3.85548 0.0839951 0.136275 3.85549 0.0751534 0.141344 3.85567 0.054023 0.15069 3.85565 0.0771437 0.140267 -28.3014 7.9653 5.77396 -28.6301 13.1988 9.92243 -0.0 0.0 -0.0 -3.49442 23.3567 -2.09884 -22.3249 -11.8003 77.5126 1.31135 -33.0063 0.388533 -67.4156 -6.21672 5.27158 3.63756 -8.05644 21.6376 -0.0 0.0 -0.0 12.0295 20.1846 -23.9885 -8.93846 10.5179 -63.1729 2.30769 48.8147 -1.04728 80.32 3.87549 8.6277 1.28315 -29.4414 -18.65 0.0 0.0 0.0 25.7059 0.644302 -6.72324 -17.704 0.315902 2.68768 20.8187 -0.742762 -2.85796 -3.51864 0.0 0.0 -0.0 0.0 -0.0 -3.36166 12.4418 8.68283 -37.1404 0.294934 -5.59377 36.7051 -11.8598 4.5902 -14.6881 0.0 0.0 0.0 0.0 0.0 
1526.3 707.469 -1430.35 -34.3648 76.6201 35.3618 3.64211 -0.00621607 0.209654 3.64214 -0.0195443 0.208834 3.64206 -0.0501641 0.203659 3.642 -0.0173705 0.209026 -28.8891 7.38882 6.15082 -29.141 12.0033 10.0233 -0.0 0.0 -0.0 -5.88199 23.6835 -5.33111 -19.3067 -16.2072 82.085 1.29865 -32.7523 0.381642 -67.705 -6.25353 5.27576 3.82188 -9.38935 22.3551 -0.0 0.0 -0.0 11.9704 19.6121 -23.8932 -10.8317 10.0146 -63.2995 2.07552 45.7898 -0.876597 79.6213 3.79495 8.58828 1.24237 -29.3746 -18.3996 0.0 0.0 0.0 23.9381 0.214143 -5.74091 -16.6561 0.320463 2.52696 17.4857 -2.21494 -2.44813 -4.64913 0.0 0.0 -0.0 0.0 -0.0 1.21919 13.9745 7.07898 -44.8827 0.806255 -6.66786 38.5775 -18.2239 4.85759 -16.9723 0.0 0.0 0.0 0.0 0.0 
